<svg xmlns="http://www.w3.org/2000/svg" data-name="Warstwa 1" viewBox="0 0 100 125" x="0px" y="0px"><title/><path d="M49.83,16.56V10C31.55,10,13.22,22,13.19,46.16v1.26c0-16.16,18.13-24.28,36.29-24.33h.35c18.16.05,36.26,8.17,36.29,24.33v-.63C86.09,26.7,68,16.63,49.83,16.56Z"/><path d="M49.83,38.6V32.07c-18.28,0-36.61,5.37-36.64,16.22v1.27c0-2.94,18.13-4.42,36.29-4.43h.35c18.16,0,36.26,1.49,36.29,4.43v-.64C86.09,42.07,68,38.62,49.83,38.6Z"/><path d="M49.83,59.83V53.3c-18.28,0-36.61-1-36.64-2.95v1.26c0,9.8,18.13,14.72,36.29,14.75h.35c18.16,0,36.26-5,36.29-14.75V51C86.09,56.86,68,59.81,49.83,59.83Z"/><path d="M49.83,83.5V77c-18.28,0-36.61-8.06-36.64-24.33V53.9c0,24,18.13,36.05,36.29,36.13h.35C68,90,86.09,77.91,86.12,53.9v-.63C86.09,73.36,68,83.43,49.83,83.5Z"/></svg>